<?xml version="1.0" encoding="UTF-8" standalone="no"?>
<!-- Created with Inkscape (http://www.inkscape.org/) -->

<svg
   xmlns:dc="http://purl.org/dc/elements/1.1/"
   xmlns:cc="http://creativecommons.org/ns#"
   xmlns:rdf="http://www.w3.org/1999/02/22-rdf-syntax-ns#"
   xmlns:svg="http://www.w3.org/2000/svg"
   xmlns="http://www.w3.org/2000/svg"
   xmlns:sodipodi="http://sodipodi.sourceforge.net/DTD/sodipodi-0.dtd"
   xmlns:inkscape="http://www.inkscape.org/namespaces/inkscape"
   width="200"
   height="200"
   viewBox="0 0 52.916665 52.916668"
   version="1.1"
   id="svg8"
   inkscape:version="0.92.1 r15371"
   sodipodi:docname="user-circle.svg">
  <defs
     id="defs2" />
  <sodipodi:namedview
     id="base"
     pagecolor="#ffffff"
     bordercolor="#666666"
     borderopacity="1.0"
     inkscape:pageopacity="0.0"
     inkscape:pageshadow="2"
     inkscape:zoom="1.979899"
     inkscape:cx="120.08015"
     inkscape:cy="113.46154"
     inkscape:document-units="mm"
     inkscape:current-layer="layer1"
     showgrid="false"
     units="px"
     showguides="false"
     inkscape:window-width="1920"
     inkscape:window-height="1017"
     inkscape:window-x="3832"
     inkscape:window-y="-8"
     inkscape:window-maximized="1" />
  <metadata
     id="metadata5">
    <rdf:RDF>
      <cc:Work
         rdf:about="">
        <dc:format>image/svg+xml</dc:format>
        <dc:type
           rdf:resource="http://purl.org/dc/dcmitype/StillImage" />
        <dc:title></dc:title>
      </cc:Work>
    </rdf:RDF>
  </metadata>
  <g
     inkscape:label="Layer 1"
     inkscape:groupmode="layer"
     id="layer1"
     transform="translate(0,-244.08332)">
    <g
       id="g4778"
       transform="matrix(1.3158086,0,0,1.3158086,-8.3726107,-85.201047)">
      <circle
         r="19.866476"
         cy="270.54166"
         cx="26.458334"
         id="path4742"
         style="fill:#848487;fill-opacity:1;stroke:none;stroke-width:0.83540422;stroke-miterlimit:4;stroke-dasharray:none;stroke-opacity:1" />
      <path
         transform="matrix(0.26458333,0,0,0.26458333,0,244.08332)"
         id="rect4764"
         d="M 112.99414,66.923828 76.910156,122.39258 140.07227,163.4668 a 75.085894,75.085894 0 0 0 34.66015,-56.39258 z"
         style="fill:#6a6f6c;fill-opacity:0.98095236;stroke:none;stroke-width:3.48650312;stroke-miterlimit:4;stroke-dasharray:none;stroke-opacity:1"
         inkscape:connector-curvature="0" />
      <circle
         r="10.405288"
         cy="270.54166"
         cx="26.458334"
         id="path4744"
         style="fill:#ffffff;fill-opacity:0.98095236;stroke:none;stroke-width:0.84374404;stroke-miterlimit:4;stroke-dasharray:none;stroke-opacity:1" />
      <path
         inkscape:connector-curvature="0"
         id="path4740"
         d="m 22.097435,290.05442 c -3.748992,-0.79692 -7.417864,-2.88505 -10.206256,-5.80887 -5.4364064,-5.70045 -7.0120354,-14.0167 -4.0619114,-21.43899 2.4502324,-6.16459 7.9418234,-10.7653 14.4559974,-12.11084 10.952336,-2.26227 21.627107,4.67506 23.864998,15.50941 2.2648,10.96458 -4.662951,21.6246 -15.509409,23.865 -2.499617,0.51631 -6.071517,0.50974 -8.543419,-0.0157 z m 9.260416,-0.77394 c 6.823401,-1.82669 12.212221,-7.24806 14.050181,-14.13506 0.62683,-2.34877 0.62372,-7.19598 -0.006,-9.525 -1.88157,-6.95775 -7.24684,-12.32802 -14.176361,-14.18955 -2.356985,-0.63318 -7.194152,-0.62905 -9.524999,0.008 -7.017065,1.91825 -12.3048494,7.20376 -14.1875314,14.18142 -0.631729,2.34134 -0.631729,7.18367 0,9.525 2.096344,7.76955 8.3535854,13.345 16.4364894,14.64556 1.411375,0.22709 5.776817,-0.0737 7.408333,-0.5105 z m -7.8239,-8.13157 c -2.915682,-0.82297 -5.61154,-3.1322 -6.946623,-5.95038 -0.769281,-1.62385 -0.839893,-1.99534 -0.839893,-4.41873 0,-2.32971 0.08643,-2.83032 0.723371,-4.18991 1.415214,-3.02087 3.544533,-4.98318 6.480511,-5.97224 5.579445,-1.87958 11.837265,1.26383 13.570275,6.81658 2.13769,6.84939 -2.60633,13.71215 -9.661658,13.97667 -1.18552,0.0444 -2.648658,-0.0708 -3.325983,-0.26199 z m 4.48485,-0.44121 c 2.153346,-0.40838 4.156972,-1.53831 5.718441,-3.22488 1.88452,-2.03551 2.60553,-3.89039 2.60553,-6.70302 0,-2.8124 -0.72104,-4.66754 -2.60508,-6.70253 -3.07628,-3.32275 -6.911873,-4.24509 -11.11109,-2.67187 -2.191822,0.82116 -4.840817,3.45356 -5.644923,5.60955 -1.56034,4.18363 -0.603078,8.2411 2.630104,11.14801 2.537685,2.2816 5.332992,3.12771 8.407018,2.54474 z m -5.75443,-4.08382 c -1.460629,-0.36865 -1.957266,-0.78486 -1.764144,-1.47846 0.06078,-0.21828 0.241663,-0.90445 0.401969,-1.52482 0.348048,-1.34693 1.652243,-2.91467 2.836254,-3.40938 1.404567,-0.58686 4.297052,-0.46133 5.631642,0.24442 1.313815,0.69476 2.517047,2.56614 2.802345,4.35846 0.17671,1.11015 0.166348,1.12932 -0.847011,1.56728 -1.377966,0.59553 -7.059799,0.7476 -9.061055,0.2425 z m 4.789262,-0.0827 c -0.475549,-0.0589 -1.189923,-0.0577 -1.587499,0.003 -0.397576,0.0604 -0.0085,0.10855 0.864633,0.10707 0.873125,-0.002 1.198415,-0.0509 0.722866,-0.10977 z m 3.203644,-0.88744 c 0.926851,-0.25705 1.001003,-0.34403 0.844293,-0.99036 -0.316108,-1.30378 -1.104694,-2.55524 -1.988675,-3.15597 -0.701786,-0.47691 -1.243515,-0.59531 -2.72388,-0.59531 -2.269547,0 -3.358643,0.58021 -4.116024,2.19279 -1.032777,2.19894 -1.026527,2.22834 0.541023,2.54567 0.770049,0.15587 1.638213,0.33768 1.929254,0.40401 0.790477,0.18015 4.35284,-0.0788 5.514009,-0.40083 z m -7.464633,-4.14633 c 0.329107,-0.41964 0.319749,-0.429 -0.0999,-0.0999 -0.440729,0.34564 -0.580887,0.56291 -0.363124,0.56291 0.05494,0 0.2633,-0.20836 0.463021,-0.46302 z m 1.875692,-2.33117 c -0.743059,-0.52046 -1.380276,-1.73452 -1.380276,-2.62977 0,-0.89526 0.637217,-2.10932 1.380276,-2.62978 0.324252,-0.22711 1.107998,-0.41293 1.741656,-0.41293 2.740154,0 3.996933,3.62324 1.875853,5.40801 -0.944999,0.79516 -2.678863,0.92192 -3.617509,0.26447 z m 1.987649,-0.0115 c -0.08792,-0.0879 -0.316124,-0.0973 -0.507119,-0.0209 -0.211065,0.0845 -0.148372,0.14716 0.159854,0.15985 0.278913,0.0115 0.435184,-0.051 0.347265,-0.13896 z m 0.41978,-0.67712 c 1.339551,-0.71344 1.650236,-2.26346 0.664091,-3.31316 -1.199745,-1.27707 -3.393463,-0.37552 -3.393463,1.39461 0,0.63149 0.213786,1.03629 0.814052,1.54138 0.919377,0.7736 1.103076,0.80978 1.91532,0.37717 z"
         style="fill:#848487;fill-opacity:1;stroke-width:0.26458335" />
    </g>
  </g>
</svg>
